<svg width="32" height="32" viewBox="0 0 32 32" fill="none" xmlns="http://www.w3.org/2000/svg">
<g clip-path="url(#clip0_203_234)">
<path d="M26.8755 -0.148078H5.12614C2.29373 -0.148078 0 2.16591 0 5.02219V26.9556C0 29.8101 2.29373 32.125 5.12614 32.125H26.8755C29.7073 32.125 31.9998 29.8101 31.9998 26.9556V5.02219C31.9998 2.16591 29.7073 -0.148078 26.8755 -0.148078Z" fill="#1677FF"/>
<path d="M8.64692 24.67C3.6686 24.67 2.19678 20.7153 4.65707 18.5515C5.47807 17.8203 6.97831 17.4633 7.77815 17.3832C10.7354 17.0885 13.4729 18.2263 16.7034 19.8166C14.4326 22.804 11.5404 24.67 8.64692 24.67ZM26.3469 20.1164C25.0664 19.6839 23.3482 19.0225 21.4345 18.3242C22.5837 16.3092 23.5018 14.0145 24.1051 11.5207H17.7974V9.22937H25.5244V7.9504H17.7974V4.13074H14.6439C14.0908 4.13074 14.0908 4.6815 14.0908 4.6815V7.9504H6.2758V9.22937H14.0908V11.5207H7.6385V12.7993H20.1525C19.6945 14.3906 19.0797 15.8845 18.3499 17.2417C14.2894 15.8905 9.95642 14.7953 7.23435 15.4694C5.49349 15.902 4.37232 16.674 3.71364 17.4829C0.690495 21.1926 2.85878 26.8271 9.24333 26.8271C13.0183 26.8271 16.6547 24.7045 19.4732 21.2065C23.6771 23.2445 32.0002 26.7437 32.0002 26.7437V21.7566C32.0002 21.7566 30.9549 21.6726 26.3469 20.1164Z" fill="white"/>
</g>
<defs>
<clipPath id="clip0_203_234">
<rect width="32" height="32" fill="white"/>
</clipPath>
</defs>
</svg>
