<svg width="32" height="32" viewBox="0 0 32 32" fill="none" xmlns="http://www.w3.org/2000/svg">
<path d="M11.2739 19.0791C11.134 19.1489 10.9765 19.1892 10.8091 19.1892C10.4215 19.1892 10.0846 18.9788 9.90774 18.6672L9.83999 18.5209L7.01815 12.4081C6.98769 12.3417 6.96883 12.2664 6.96883 12.1933C6.96883 11.9115 7.20024 11.6833 7.48562 11.6833C7.60137 11.6833 7.70857 11.7212 7.79474 11.7844L11.1247 14.125C11.3679 14.2819 11.6586 14.3741 11.9711 14.3741C12.1576 14.3741 12.3354 14.3398 12.5012 14.2802L28.1608 7.40002C25.3538 4.13437 20.731 2 15.4997 2C6.93913 2 0 7.70871 0 14.7512C0 18.5931 2.08774 22.0516 5.3556 24.3893C5.61768 24.5741 5.78937 24.8776 5.78937 25.2202C5.78937 25.3335 5.76476 25.4369 5.73474 25.545C5.47374 26.506 5.05602 28.0452 5.03662 28.1173C5.004 28.2379 4.95316 28.3639 4.95316 28.4901C4.95316 28.7718 5.18435 29 5.47017 29C5.58213 29 5.67383 28.9588 5.76845 28.9051L9.16171 26.971C9.41696 26.8258 9.68717 26.7355 9.98501 26.7355C10.1434 26.7355 10.2964 26.7598 10.4403 26.8032C12.0233 27.2527 13.7313 27.5025 15.4998 27.5025C24.0599 27.5025 31 21.7934 31 14.7512C31 12.6181 30.3596 10.6093 29.2343 8.84212L11.3875 19.0145L11.2739 19.0791Z" fill="#1AAD19"/>
</svg>
