<svg width="513" height="513" viewBox="0 0 513 513" fill="none" xmlns="http://www.w3.org/2000/svg">
<rect x="0.818359" y="0.526611" width="512" height="512" rx="100" fill="#8758FF"/>
<path d="M354.293 428.28C351.832 446.563 333.943 460.845 316.165 455.914C290.834 448.934 261.505 438.049 235.115 436.02C231.636 435.753 194.669 432.949 194.669 432.949C188.13 432.484 181.992 429.626 177.425 424.923L107.732 353.149C100.116 345.307 98.054 333.61 102.529 323.636C102.529 323.636 145.624 228.92 147.224 223.994C148.825 219.068 154.699 176.109 158.18 153.031C159.102 146.915 162.121 141.308 166.72 137.172L249.164 63.003C260.635 52.6847 278.439 54.2137 287.981 66.3367L357.239 154.321C361.157 159.301 363.166 165.489 363.195 171.825C363.274 188.495 364.65 222.718 373.865 244.761C382.83 266.202 399.284 289.358 407.883 300.752C411.183 305.126 411.688 311.039 408.9 315.756C402.832 326.032 390.841 345.762 373.865 371.076C362.162 388.53 356.739 410.106 354.293 428.28Z" fill="white"/>
<path d="M184.837 430.554C249.773 298.902 181.279 241.972 143.029 218.399" stroke="#8758FF" stroke-width="12"/>
<path d="M372.974 386.077C331.611 289.562 271.122 288.228 208.854 303.35" stroke="#8758FF" stroke-width="12"/>
<path d="M272.901 296.678C211.079 141.899 320.936 143.233 282.241 52.5001" stroke="#8758FF" stroke-width="12"/>
</svg>
