<svg width="24" height="24" viewBox="0 0 24 24" fill="none" xmlns="http://www.w3.org/2000/svg">
<path fill-rule="evenodd" clip-rule="evenodd" d="M9.50096 3.99859L3.83237 8.53347C2.70081 9.43871 2.14734 10.8852 2.38557 12.3145L3.44267 18.6572C3.76413 20.5859 5.43289 21.9996 7.38825 21.9996H16.6112C18.5666 21.9996 20.2353 20.5859 20.5568 18.6572L21.6139 12.3145C21.8521 10.8852 21.2987 9.43872 20.1671 8.53347L14.4985 3.9986C13.0376 2.8299 10.9618 2.82989 9.50096 3.99859ZM13.9998 18.7495C14.414 18.7495 14.7498 18.4137 14.7498 17.9995C14.7498 17.5853 14.414 17.2495 13.9998 17.2495H9.99976C9.58554 17.2495 9.24976 17.5853 9.24976 17.9995C9.24976 18.4137 9.58554 18.7495 9.99976 18.7495H13.9998Z" fill="#363538"/>
</svg>
