<svg width="32" height="32" viewBox="0 0 32 32" fill="none" xmlns="http://www.w3.org/2000/svg">
<path d="M25.4827 16.9102C25.4684 14.2883 26.6543 12.3094 29.0547 10.852C27.7116 8.9302 25.6827 7.87286 23.0036 7.66568C20.4675 7.46564 17.6955 9.14452 16.6811 9.14452C15.6094 9.14452 13.1518 7.73712 11.2229 7.73712C7.23648 7.80142 3 10.9163 3 17.2531C3 19.1249 3.34292 21.0586 4.02876 23.0542C4.94321 25.6761 8.24381 32.1058 11.6873 31.9987C13.4876 31.9558 14.7593 30.7199 17.1026 30.7199C19.3744 30.7199 20.5532 31.9987 22.5607 31.9987C26.0328 31.9487 29.019 26.1047 29.8906 23.4757C25.2326 21.2824 25.4827 17.046 25.4827 16.9102V16.9102ZM21.4391 5.17951C23.3894 2.86481 23.2108 0.757281 23.1537 0C21.4319 0.100018 19.4387 1.17164 18.3028 2.49331C17.0526 3.90785 16.3167 5.65817 16.4739 7.62996C18.3385 7.77284 20.0388 6.81553 21.4391 5.17951V5.17951Z" fill="black"/>
</svg>
