<svg width="1024" height="1024" viewBox="0 0 1024 1024" fill="none" xmlns="http://www.w3.org/2000/svg">
<rect x="0.5" y="0.5" width="1023" height="1023" rx="4.5" fill="#000041"/>
<rect x="0.5" y="0.5" width="1023" height="1023" rx="4.5" stroke="#000041" stroke-dasharray="10 5"/>
<rect width="763" height="600" transform="translate(131 212)" fill="#000041"/>
<path d="M833.2 437.436C847.6 451.836 847.6 475.182 833.2 489.582L571.582 751.2C557.182 765.6 533.836 765.6 519.436 751.2L354.8 586.564C340.4 572.164 340.4 548.818 354.8 534.418L616.418 272.8C630.818 258.4 654.164 258.4 668.564 272.8L833.2 437.436Z" fill="#4A6DFF"/>
<path d="M670.2 437.436C684.6 451.836 684.6 475.182 670.2 489.582L408.582 751.2C394.182 765.6 370.836 765.6 356.436 751.2L191.8 586.564C177.4 572.164 177.4 548.818 191.8 534.418L453.418 272.8C467.818 258.4 491.164 258.4 505.564 272.8L670.2 437.436Z" fill="#2EB9FF"/>
</svg>
